<?xml version="1.0" encoding="UTF-8" standalone="no"?>
<!DOCTYPE svg PUBLIC "-//W3C//DTD SVG 1.1//EN"
 "http://www.w3.org/Graphics/SVG/1.1/DTD/svg11.dtd">
<!-- Generated by graphviz version 2.38.0 (20140413.2041)
 -->
<!-- Title: rapidschema::GenericConstant&lt; Ch, T &gt; Pages: 1 -->
<svg width="205pt" height="185pt"
 viewBox="0.00 0.00 205.00 185.00" xmlns="http://www.w3.org/2000/svg" xmlns:xlink="http://www.w3.org/1999/xlink">
<g id="graph0" class="graph" transform="scale(1 1) rotate(0) translate(4 181)">
<title>rapidschema::GenericConstant&lt; Ch, T &gt;</title>
<polygon fill="white" stroke="none" points="-4,4 -4,-181 201,-181 201,4 -4,4"/>
<!-- Node1 -->
<g id="node1" class="node"><title>Node1</title>
<polygon fill="#bfbfbf" stroke="black" points="0,-0.5 0,-34.5 197,-34.5 197,-0.5 0,-0.5"/>
<text text-anchor="start" x="8" y="-20.9" font-family="Helvetica,sans-Serif" font-size="12.00">rapidschema::GenericConstant</text>
<text text-anchor="middle" x="98.5" y="-7.9" font-family="Helvetica,sans-Serif" font-size="12.00">&lt; Ch, T &gt;</text>
</g>
<!-- Node2 -->
<g id="node2" class="node"><title>Node2</title>
<g id="a_node2"><a xlink:href="classrapidschema_1_1GenericValue.html" target="_top" xlink:title="rapidschema::GenericValue\l\&lt; Ch, T \&gt;">
<polygon fill="white" stroke="black" points="11.5,-71.5 11.5,-105.5 185.5,-105.5 185.5,-71.5 11.5,-71.5"/>
<text text-anchor="start" x="19.5" y="-91.9" font-family="Helvetica,sans-Serif" font-size="12.00">rapidschema::GenericValue</text>
<text text-anchor="middle" x="98.5" y="-78.9" font-family="Helvetica,sans-Serif" font-size="12.00">&lt; Ch, T &gt;</text>
</a>
</g>
</g>
<!-- Node2&#45;&gt;Node1 -->
<g id="edge1" class="edge"><title>Node2&#45;&gt;Node1</title>
<path fill="none" stroke="midnightblue" d="M98.5,-61.2468C98.5,-52.3917 98.5,-42.7667 98.5,-34.8958"/>
<polygon fill="midnightblue" stroke="midnightblue" points="95.0001,-61.4965 98.5,-71.4966 102,-61.4966 95.0001,-61.4965"/>
</g>
<!-- Node3 -->
<g id="node3" class="node"><title>Node3</title>
<g id="a_node3"><a xlink:href="classrapidschema_1_1GenericConfig.html" target="_top" xlink:title="rapidschema::GenericConfig\l\&lt; Ch \&gt;">
<polygon fill="white" stroke="black" points="8,-142.5 8,-176.5 189,-176.5 189,-142.5 8,-142.5"/>
<text text-anchor="start" x="16" y="-162.9" font-family="Helvetica,sans-Serif" font-size="12.00">rapidschema::GenericConfig</text>
<text text-anchor="middle" x="98.5" y="-149.9" font-family="Helvetica,sans-Serif" font-size="12.00">&lt; Ch &gt;</text>
</a>
</g>
</g>
<!-- Node3&#45;&gt;Node2 -->
<g id="edge2" class="edge"><title>Node3&#45;&gt;Node2</title>
<path fill="none" stroke="midnightblue" d="M98.5,-132.247C98.5,-123.392 98.5,-113.767 98.5,-105.896"/>
<polygon fill="midnightblue" stroke="midnightblue" points="95.0001,-132.497 98.5,-142.497 102,-132.497 95.0001,-132.497"/>
</g>
</g>
</svg>
