<?xml version="1.0" encoding="UTF-8" standalone="no"?>
<!DOCTYPE svg PUBLIC "-//W3C//DTD SVG 1.1//EN"
 "http://www.w3.org/Graphics/SVG/1.1/DTD/svg11.dtd">
<!-- Generated by graphviz version 2.38.0 (20140413.2041)
 -->
<!-- Title: rapidschema::GenericConfig&lt; Ch &gt; Pages: 1 -->
<!--zoomable 253 -->
<svg id="main" version="1.1" xmlns="http://www.w3.org/2000/svg" xmlns:xlink="http://www.w3.org/1999/xlink" xml:space="preserve" onload="init(evt)">
<style type="text/css"><![CDATA[
.edge:hover path { stroke: red; }
.edge:hover polygon { stroke: red; fill: red; }
]]></style>
<script type="text/javascript"><![CDATA[
var edges = document.getElementsByTagName('g');
if (edges && edges.length) {
  for (var i=0;i<edges.length;i++) {
    if (edges[i].id.substr(0,4)=='edge') {
      edges[i].setAttribute('class','edge');
    }
  }
}
]]></script>
        <defs>
                <circle id="rim" cx="0" cy="0" r="7"/>
                <circle id="rim2" cx="0" cy="0" r="3.5"/>
                <g id="zoomPlus">
                        <use xlink:href="#rim" fill="#404040">
                                <set attributeName="fill" to="#808080" begin="zoomplus.mouseover" end="zoomplus.mouseout"/>
                        </use>
                        <path d="M-4,0h8M0,-4v8" fill="none" stroke="white" stroke-width="1.5" pointer-events="none"/>
                </g>
                <g id="zoomMin">
                        <use xlink:href="#rim" fill="#404040">
                                <set attributeName="fill" to="#808080" begin="zoomminus.mouseover" end="zoomminus.mouseout"/>
                        </use>
                        <path d="M-4,0h8" fill="none" stroke="white" stroke-width="1.5" pointer-events="none"/>
                </g>
                <g id="dirArrow">
                        <path fill="none" stroke="white" stroke-width="1.5" d="M0,-3.0v7 M-2.5,-0.5L0,-3.0L2.5,-0.5"/>
                </g>
               <g id="resetDef">
                       <use xlink:href="#rim2" fill="#404040">
                               <set attributeName="fill" to="#808080" begin="reset.mouseover" end="reset.mouseout"/>
                       </use>
               </g>
        </defs>

<script type="text/javascript">
var viewWidth = 639;
var viewHeight = 253;
var sectionId = 'dynsection-0';
</script>
<script xlink:href="svgpan.js"/>
<svg id="graph" class="graph">
<g id="viewport">
<title>rapidschema::GenericConfig&lt; Ch &gt;</title>
<polygon fill="white" stroke="none" points="-4,4 -4,-249 635,-249 635,4 -4,4"/>
<!-- Node1 -->
<g id="node1" class="node"><title>Node1</title>
<polygon fill="#bfbfbf" stroke="black" points="0,-106.5 0,-140.5 181,-140.5 181,-106.5 0,-106.5"/>
<text text-anchor="start" x="8" y="-126.9" font-family="Helvetica,sans-Serif" font-size="12.00">rapidschema::GenericConfig</text>
<text text-anchor="middle" x="90.5" y="-113.9" font-family="Helvetica,sans-Serif" font-size="12.00">&lt; Ch &gt;</text>
</g>
<!-- Node2 -->
<g id="node2" class="node"><title>Node2</title>
<g id="a_node2"><a xlink:href="classrapidschema_1_1GenericValue.html" target="_top" xlink:title="GenericValue\&lt; Ch, T \&gt;">
<polygon fill="white" stroke="black" points="233,-214 233,-235 382,-235 382,-214 233,-214"/>
<text text-anchor="middle" x="307.5" y="-221.4" font-family="Helvetica,sans-Serif" font-size="12.00">GenericValue&lt; Ch, T &gt;</text>
</a>
</g>
</g>
<!-- Node1&#45;&gt;Node2 -->
<g id="edge1" class="edge"><title>Node1&#45;&gt;Node2</title>
<path fill="none" stroke="midnightblue" d="M121.494,-146.743C145.961,-164.654 182.071,-188.774 217,-203.5 227,-207.716 238.003,-211.174 248.77,-213.979"/>
<polygon fill="midnightblue" stroke="midnightblue" points="123.462,-143.844 113.347,-140.692 119.288,-149.464 123.462,-143.844"/>
</g>
<!-- Node4 -->
<g id="node4" class="node"><title>Node4</title>
<g id="a_node4"><a xlink:href="classrapidschema_1_1GenericValue.html" target="_top" xlink:title="GenericValue\&lt; Ch, T,\l Constraints... \&gt;">
<polygon fill="white" stroke="black" points="238,-159.5 238,-193.5 377,-193.5 377,-159.5 238,-159.5"/>
<text text-anchor="start" x="246" y="-179.9" font-family="Helvetica,sans-Serif" font-size="12.00">GenericValue&lt; Ch, T,</text>
<text text-anchor="middle" x="307.5" y="-166.9" font-family="Helvetica,sans-Serif" font-size="12.00"> Constraints... &gt;</text>
</a>
</g>
</g>
<!-- Node1&#45;&gt;Node4 -->
<g id="edge3" class="edge"><title>Node1&#45;&gt;Node4</title>
<path fill="none" stroke="midnightblue" d="M170.691,-143.022C192.706,-148.448 216.426,-154.296 237.787,-159.561"/>
<polygon fill="midnightblue" stroke="midnightblue" points="171.258,-139.557 160.711,-140.561 169.582,-146.353 171.258,-139.557"/>
</g>
<!-- Node6 -->
<g id="node6" class="node"><title>Node6</title>
<g id="a_node6"><a xlink:href="classrapidschema_1_1Array.html" target="_top" xlink:title="rapidschema::Array\l\&lt; Ch \&gt;">
<polygon fill="white" stroke="black" points="242,-106.5 242,-140.5 373,-140.5 373,-106.5 242,-106.5"/>
<text text-anchor="start" x="250" y="-126.9" font-family="Helvetica,sans-Serif" font-size="12.00">rapidschema::Array</text>
<text text-anchor="middle" x="307.5" y="-113.9" font-family="Helvetica,sans-Serif" font-size="12.00">&lt; Ch &gt;</text>
</a>
</g>
</g>
<!-- Node1&#45;&gt;Node6 -->
<g id="edge5" class="edge"><title>Node1&#45;&gt;Node6</title>
<path fill="none" stroke="midnightblue" d="M191.218,-123.5C208.44,-123.5 225.93,-123.5 241.907,-123.5"/>
<polygon fill="midnightblue" stroke="midnightblue" points="191.123,-120 181.123,-123.5 191.122,-127 191.123,-120"/>
</g>
<!-- Node7 -->
<g id="node7" class="node"><title>Node7</title>
<g id="a_node7"><a xlink:href="classrapidschema_1_1GenericObject.html" target="_top" xlink:title="rapidschema::GenericObject\l\&lt; Ch \&gt;">
<polygon fill="white" stroke="black" points="217,-53.5 217,-87.5 398,-87.5 398,-53.5 217,-53.5"/>
<text text-anchor="start" x="225" y="-73.9" font-family="Helvetica,sans-Serif" font-size="12.00">rapidschema::GenericObject</text>
<text text-anchor="middle" x="307.5" y="-60.9" font-family="Helvetica,sans-Serif" font-size="12.00">&lt; Ch &gt;</text>
</a>
</g>
</g>
<!-- Node1&#45;&gt;Node7 -->
<g id="edge6" class="edge"><title>Node1&#45;&gt;Node7</title>
<path fill="none" stroke="midnightblue" d="M170.641,-103.991C192.543,-98.5916 216.138,-92.7754 237.419,-87.5293"/>
<polygon fill="midnightblue" stroke="midnightblue" points="169.582,-100.647 160.711,-106.439 171.258,-107.443 169.582,-100.647"/>
</g>
<!-- Node8 -->
<g id="node8" class="node"><title>Node8</title>
<g id="a_node8"><a xlink:href="classrapidschema_1_1GenericValue.html" target="_top" xlink:title="rapidschema::GenericValue\l\&lt; Ch \&gt;">
<polygon fill="white" stroke="black" points="220.5,-0.5 220.5,-34.5 394.5,-34.5 394.5,-0.5 220.5,-0.5"/>
<text text-anchor="start" x="228.5" y="-20.9" font-family="Helvetica,sans-Serif" font-size="12.00">rapidschema::GenericValue</text>
<text text-anchor="middle" x="307.5" y="-7.9" font-family="Helvetica,sans-Serif" font-size="12.00">&lt; Ch &gt;</text>
</a>
</g>
</g>
<!-- Node1&#45;&gt;Node8 -->
<g id="edge7" class="edge"><title>Node1&#45;&gt;Node8</title>
<path fill="none" stroke="midnightblue" d="M122.705,-100.52C147.319,-83.2358 183.047,-59.9649 217,-44.5 224.976,-40.8672 233.569,-37.5656 242.164,-34.6172"/>
<polygon fill="midnightblue" stroke="midnightblue" points="120.609,-97.7159 114.484,-106.361 124.663,-103.422 120.609,-97.7159"/>
</g>
<!-- Node3 -->
<g id="node3" class="node"><title>Node3</title>
<g id="a_node3"><a xlink:href="classrapidschema_1_1GenericConstant.html" target="_top" xlink:title="rapidschema::GenericConstant\l\&lt; Ch, T \&gt;">
<polygon fill="white" stroke="black" points="434,-210.5 434,-244.5 631,-244.5 631,-210.5 434,-210.5"/>
<text text-anchor="start" x="442" y="-230.9" font-family="Helvetica,sans-Serif" font-size="12.00">rapidschema::GenericConstant</text>
<text text-anchor="middle" x="532.5" y="-217.9" font-family="Helvetica,sans-Serif" font-size="12.00">&lt; Ch, T &gt;</text>
</a>
</g>
</g>
<!-- Node2&#45;&gt;Node3 -->
<g id="edge2" class="edge"><title>Node2&#45;&gt;Node3</title>
<path fill="none" stroke="midnightblue" d="M392.328,-225.628C405.82,-225.809 419.89,-225.999 433.676,-226.184"/>
<polygon fill="midnightblue" stroke="midnightblue" points="392.183,-222.126 382.137,-225.491 392.089,-229.125 392.183,-222.126"/>
</g>
<!-- Node5 -->
<g id="node5" class="node"><title>Node5</title>
<g id="a_node5"><a xlink:href="classrapidschema_1_1GenericDefaultValue.html" target="_top" xlink:title="rapidschema::GenericDefault\lValue\&lt; Ch, T, Constraints \&gt;">
<polygon fill="white" stroke="black" points="440,-157.5 440,-191.5 625,-191.5 625,-157.5 440,-157.5"/>
<text text-anchor="start" x="448" y="-177.9" font-family="Helvetica,sans-Serif" font-size="12.00">rapidschema::GenericDefault</text>
<text text-anchor="middle" x="532.5" y="-164.9" font-family="Helvetica,sans-Serif" font-size="12.00">Value&lt; Ch, T, Constraints &gt;</text>
</a>
</g>
</g>
<!-- Node4&#45;&gt;Node5 -->
<g id="edge4" class="edge"><title>Node4&#45;&gt;Node5</title>
<path fill="none" stroke="midnightblue" d="M387.56,-175.791C404.404,-175.64 422.33,-175.479 439.608,-175.324"/>
<polygon fill="midnightblue" stroke="midnightblue" points="387.195,-172.294 377.227,-175.884 387.258,-179.294 387.195,-172.294"/>
</g>
</g>
</svg>
        <g id="navigator" transform="translate(0 0)" fill="#404254">
                <rect fill="#f2f5e9" fill-opacity="0.5" stroke="#606060" stroke-width=".5" x="0" y="0" width="60" height="60"/>
                <use id="zoomplus" xlink:href="#zoomPlus" x="17" y="9" onmousedown="handleZoom(evt,'in')"/>
                <use id="zoomminus" xlink:href="#zoomMin" x="42" y="9" onmousedown="handleZoom(evt,'out')"/>
                <use id="reset" xlink:href="#resetDef" x="30" y="36" onmousedown="handleReset()"/>
                <g id="arrowUp" xlink:href="#dirArrow" transform="translate(30 24)" onmousedown="handlePan(0,-1)">
                  <use xlink:href="#rim" fill="#404040">
                        <set attributeName="fill" to="#808080" begin="arrowUp.mouseover" end="arrowUp.mouseout"/>
                  </use>
                  <path fill="none" stroke="white" stroke-width="1.5" d="M0,-3.0v7 M-2.5,-0.5L0,-3.0L2.5,-0.5"/>
                </g>
                <g id="arrowRight" xlink:href="#dirArrow" transform="rotate(90) translate(36 -43)" onmousedown="handlePan(1,0)">
                  <use xlink:href="#rim" fill="#404040">
                        <set attributeName="fill" to="#808080" begin="arrowRight.mouseover" end="arrowRight.mouseout"/>
                  </use>
                  <path fill="none" stroke="white" stroke-width="1.5" d="M0,-3.0v7 M-2.5,-0.5L0,-3.0L2.5,-0.5"/>
                </g>
                <g id="arrowDown" xlink:href="#dirArrow" transform="rotate(180) translate(-30 -48)" onmousedown="handlePan(0,1)">
                  <use xlink:href="#rim" fill="#404040">
                        <set attributeName="fill" to="#808080" begin="arrowDown.mouseover" end="arrowDown.mouseout"/>
                  </use>
                  <path fill="none" stroke="white" stroke-width="1.5" d="M0,-3.0v7 M-2.5,-0.5L0,-3.0L2.5,-0.5"/>
                </g>
                <g id="arrowLeft" xlink:href="#dirArrow" transform="rotate(270) translate(-36 17)" onmousedown="handlePan(-1,0)">
                  <use xlink:href="#rim" fill="#404040">
                        <set attributeName="fill" to="#808080" begin="arrowLeft.mouseover" end="arrowLeft.mouseout"/>
                  </use>
                  <path fill="none" stroke="white" stroke-width="1.5" d="M0,-3.0v7 M-2.5,-0.5L0,-3.0L2.5,-0.5"/>
                </g>
        </g>
        <svg viewBox="0 0 15 15" width="100%" height="30px" preserveAspectRatio="xMaxYMin meet">
         <g id="arrow_out" transform="scale(0.3 0.3)">
          <a xlink:href="classrapidschema_1_1GenericConfig__inherit__graph_org.svg" target="_base">
           <rect id="button" ry="5" rx="5" y="6" x="6" height="38" width="38"
                fill="#f2f5e9" fill-opacity="0.5" stroke="#606060" stroke-width="1.0"/>
           <path id="arrow"
             d="M 11.500037,31.436501 C 11.940474,20.09759 22.043105,11.32322 32.158766,21.979434 L 37.068811,17.246167 C 37.068811,17.246167 37.088388,32 37.088388,32 L 22.160133,31.978069 C 22.160133,31.978069 26.997745,27.140456 26.997745,27.140456 C 18.528582,18.264221 13.291696,25.230495 11.500037,31.436501 z"
             style="fill:#404040;"/>
          </a>
         </g>
        </svg>
</svg>
