<?xml version="1.0" encoding="UTF-8" standalone="no"?>
<!DOCTYPE svg PUBLIC "-//W3C//DTD SVG 1.1//EN"
 "http://www.w3.org/Graphics/SVG/1.1/DTD/svg11.dtd">
<!-- Generated by graphviz version 2.38.0 (20140413.2041)
 -->
<!-- Title: rapidschema::GenericValue&lt; Ch, T, Constraints &gt; Pages: 1 -->
<svg width="247pt" height="127pt"
 viewBox="0.00 0.00 246.50 127.00" xmlns="http://www.w3.org/2000/svg" xmlns:xlink="http://www.w3.org/1999/xlink">
<g id="graph0" class="graph" transform="scale(1 1) rotate(0) translate(4 123)">
<title>rapidschema::GenericValue&lt; Ch, T, Constraints &gt;</title>
<polygon fill="white" stroke="none" points="-4,4 -4,-123 242.5,-123 242.5,4 -4,4"/>
<!-- Node1 -->
<g id="node1" class="node"><title>Node1</title>
<polygon fill="#bfbfbf" stroke="black" points="64.5,-0.5 64.5,-34.5 238.5,-34.5 238.5,-0.5 64.5,-0.5"/>
<text text-anchor="start" x="72.5" y="-20.9" font-family="Helvetica,sans-Serif" font-size="12.00">rapidschema::GenericValue</text>
<text text-anchor="middle" x="151.5" y="-7.9" font-family="Helvetica,sans-Serif" font-size="12.00">&lt; Ch, T, Constraints &gt;</text>
</g>
<!-- Node2 -->
<g id="node2" class="node"><title>Node2</title>
<g id="a_node2"><a xlink:href="classrapidschema_1_1GenericConfig.html" target="_top" xlink:title="rapidschema::GenericConfig\l\&lt; Ch \&gt;">
<polygon fill="white" stroke="black" points="0,-84.5 0,-118.5 181,-118.5 181,-84.5 0,-84.5"/>
<text text-anchor="start" x="8" y="-104.9" font-family="Helvetica,sans-Serif" font-size="12.00">rapidschema::GenericConfig</text>
<text text-anchor="middle" x="90.5" y="-91.9" font-family="Helvetica,sans-Serif" font-size="12.00">&lt; Ch &gt;</text>
</a>
</g>
</g>
<!-- Node2&#45;&gt;Node1 -->
<g id="edge1" class="edge"><title>Node2&#45;&gt;Node1</title>
<path fill="none" stroke="midnightblue" d="M108.73,-75.9946C118.674,-62.6266 130.707,-46.4511 139.473,-34.6669"/>
<polygon fill="midnightblue" stroke="midnightblue" points="105.712,-74.187 102.552,-84.2994 111.329,-78.365 105.712,-74.187"/>
</g>
<!-- Node3 -->
<g id="node3" class="node"><title>Node3</title>
<polygon fill="white" stroke="#bfbfbf" points="199,-91 199,-112 228,-112 228,-91 199,-91"/>
<text text-anchor="middle" x="213.5" y="-98.4" font-family="Helvetica,sans-Serif" font-size="12.00">T</text>
</g>
<!-- Node3&#45;&gt;Node1 -->
<g id="edge2" class="edge"><title>Node3&#45;&gt;Node1</title>
<path fill="none" stroke="#9a32cd" stroke-dasharray="5,2" d="M200.048,-82.7086C189.252,-68.4296 174.221,-48.5505 163.755,-34.7082"/>
<polygon fill="#9a32cd" stroke="#9a32cd" points="197.321,-84.9058 206.144,-90.7715 202.905,-80.684 197.321,-84.9058"/>
<text text-anchor="middle" x="193" y="-56.4" font-family="Helvetica,sans-Serif" font-size="12.00"> t_</text>
</g>
</g>
</svg>
