<?xml version="1.0" encoding="UTF-8" standalone="no"?>
<!DOCTYPE svg PUBLIC "-//W3C//DTD SVG 1.1//EN"
 "http://www.w3.org/Graphics/SVG/1.1/DTD/svg11.dtd">
<!-- Generated by graphviz version 2.38.0 (20140413.2041)
 -->
<!-- Title: rapidschema::GenericConstant&lt; Ch, T &gt; Pages: 1 -->
<svg width="258pt" height="199pt"
 viewBox="0.00 0.00 258.00 199.00" xmlns="http://www.w3.org/2000/svg" xmlns:xlink="http://www.w3.org/1999/xlink">
<g id="graph0" class="graph" transform="scale(1 1) rotate(0) translate(4 195)">
<title>rapidschema::GenericConstant&lt; Ch, T &gt;</title>
<polygon fill="white" stroke="none" points="-4,4 -4,-195 254,-195 254,4 -4,4"/>
<!-- Node1 -->
<g id="node1" class="node"><title>Node1</title>
<polygon fill="#bfbfbf" stroke="black" points="53,-0.5 53,-34.5 250,-34.5 250,-0.5 53,-0.5"/>
<text text-anchor="start" x="61" y="-20.9" font-family="Helvetica,sans-Serif" font-size="12.00">rapidschema::GenericConstant</text>
<text text-anchor="middle" x="151.5" y="-7.9" font-family="Helvetica,sans-Serif" font-size="12.00">&lt; Ch, T &gt;</text>
</g>
<!-- Node2 -->
<g id="node2" class="node"><title>Node2</title>
<g id="a_node2"><a xlink:href="classrapidschema_1_1GenericValue.html" target="_top" xlink:title="rapidschema::GenericValue\l\&lt; Ch, T \&gt;">
<polygon fill="white" stroke="black" points="64.5,-72.5 64.5,-106.5 238.5,-106.5 238.5,-72.5 64.5,-72.5"/>
<text text-anchor="start" x="72.5" y="-92.9" font-family="Helvetica,sans-Serif" font-size="12.00">rapidschema::GenericValue</text>
<text text-anchor="middle" x="151.5" y="-79.9" font-family="Helvetica,sans-Serif" font-size="12.00">&lt; Ch, T &gt;</text>
</a>
</g>
</g>
<!-- Node2&#45;&gt;Node1 -->
<g id="edge1" class="edge"><title>Node2&#45;&gt;Node1</title>
<path fill="none" stroke="midnightblue" d="M151.5,-62.0079C151.5,-52.8027 151.5,-42.7615 151.5,-34.6473"/>
<polygon fill="midnightblue" stroke="midnightblue" points="148,-62.2646 151.5,-72.2646 155,-62.2647 148,-62.2646"/>
</g>
<!-- Node3 -->
<g id="node3" class="node"><title>Node3</title>
<g id="a_node3"><a xlink:href="classrapidschema_1_1GenericConfig.html" target="_top" xlink:title="rapidschema::GenericConfig\l\&lt; Ch \&gt;">
<polygon fill="white" stroke="black" points="0,-156.5 0,-190.5 181,-190.5 181,-156.5 0,-156.5"/>
<text text-anchor="start" x="8" y="-176.9" font-family="Helvetica,sans-Serif" font-size="12.00">rapidschema::GenericConfig</text>
<text text-anchor="middle" x="90.5" y="-163.9" font-family="Helvetica,sans-Serif" font-size="12.00">&lt; Ch &gt;</text>
</a>
</g>
</g>
<!-- Node3&#45;&gt;Node2 -->
<g id="edge2" class="edge"><title>Node3&#45;&gt;Node2</title>
<path fill="none" stroke="midnightblue" d="M108.73,-147.995C118.674,-134.627 130.707,-118.451 139.473,-106.667"/>
<polygon fill="midnightblue" stroke="midnightblue" points="105.712,-146.187 102.552,-156.299 111.329,-150.365 105.712,-146.187"/>
</g>
<!-- Node4 -->
<g id="node4" class="node"><title>Node4</title>
<polygon fill="white" stroke="#bfbfbf" points="199,-163 199,-184 228,-184 228,-163 199,-163"/>
<text text-anchor="middle" x="213.5" y="-170.4" font-family="Helvetica,sans-Serif" font-size="12.00">T</text>
</g>
<!-- Node4&#45;&gt;Node2 -->
<g id="edge3" class="edge"><title>Node4&#45;&gt;Node2</title>
<path fill="none" stroke="#9a32cd" stroke-dasharray="5,2" d="M200.048,-154.709C189.252,-140.43 174.221,-120.55 163.755,-106.708"/>
<polygon fill="#9a32cd" stroke="#9a32cd" points="197.321,-156.906 206.144,-162.772 202.905,-152.684 197.321,-156.906"/>
<text text-anchor="middle" x="193" y="-128.4" font-family="Helvetica,sans-Serif" font-size="12.00"> t_</text>
</g>
</g>
</svg>
