<?xml version="1.0" encoding="UTF-8" standalone="no"?>
<!DOCTYPE svg PUBLIC "-//W3C//DTD SVG 1.1//EN"
 "http://www.w3.org/Graphics/SVG/1.1/DTD/svg11.dtd">
<!-- Generated by graphviz version 2.38.0 (20140413.2041)
 -->
<!-- Title: rapidschema::GenericDefaultValue&lt; Ch, T, Constraints &gt; Pages: 1 -->
<svg width="193pt" height="185pt"
 viewBox="0.00 0.00 193.00 185.00" xmlns="http://www.w3.org/2000/svg" xmlns:xlink="http://www.w3.org/1999/xlink">
<g id="graph0" class="graph" transform="scale(1 1) rotate(0) translate(4 181)">
<title>rapidschema::GenericDefaultValue&lt; Ch, T, Constraints &gt;</title>
<polygon fill="white" stroke="none" points="-4,4 -4,-181 189,-181 189,4 -4,4"/>
<!-- Node1 -->
<g id="node1" class="node"><title>Node1</title>
<polygon fill="#bfbfbf" stroke="black" points="-1.42109e-14,-0.5 -1.42109e-14,-34.5 185,-34.5 185,-0.5 -1.42109e-14,-0.5"/>
<text text-anchor="start" x="8" y="-20.9" font-family="Helvetica,sans-Serif" font-size="12.00">rapidschema::GenericDefault</text>
<text text-anchor="middle" x="92.5" y="-7.9" font-family="Helvetica,sans-Serif" font-size="12.00">Value&lt; Ch, T, Constraints &gt;</text>
</g>
<!-- Node2 -->
<g id="node2" class="node"><title>Node2</title>
<g id="a_node2"><a xlink:href="classrapidschema_1_1GenericValue.html" target="_top" xlink:title="rapidschema::GenericValue\l\&lt; Ch, T, Constraints... \&gt;">
<polygon fill="white" stroke="black" points="5.5,-71.5 5.5,-105.5 179.5,-105.5 179.5,-71.5 5.5,-71.5"/>
<text text-anchor="start" x="13.5" y="-91.9" font-family="Helvetica,sans-Serif" font-size="12.00">rapidschema::GenericValue</text>
<text text-anchor="middle" x="92.5" y="-78.9" font-family="Helvetica,sans-Serif" font-size="12.00">&lt; Ch, T, Constraints... &gt;</text>
</a>
</g>
</g>
<!-- Node2&#45;&gt;Node1 -->
<g id="edge1" class="edge"><title>Node2&#45;&gt;Node1</title>
<path fill="none" stroke="midnightblue" d="M92.5,-61.2468C92.5,-52.3917 92.5,-42.7667 92.5,-34.8958"/>
<polygon fill="midnightblue" stroke="midnightblue" points="89.0001,-61.4965 92.5,-71.4966 96.0001,-61.4966 89.0001,-61.4965"/>
</g>
<!-- Node3 -->
<g id="node3" class="node"><title>Node3</title>
<g id="a_node3"><a xlink:href="classrapidschema_1_1GenericConfig.html" target="_top" xlink:title="rapidschema::GenericConfig\l\&lt; Ch \&gt;">
<polygon fill="white" stroke="black" points="2,-142.5 2,-176.5 183,-176.5 183,-142.5 2,-142.5"/>
<text text-anchor="start" x="10" y="-162.9" font-family="Helvetica,sans-Serif" font-size="12.00">rapidschema::GenericConfig</text>
<text text-anchor="middle" x="92.5" y="-149.9" font-family="Helvetica,sans-Serif" font-size="12.00">&lt; Ch &gt;</text>
</a>
</g>
</g>
<!-- Node3&#45;&gt;Node2 -->
<g id="edge2" class="edge"><title>Node3&#45;&gt;Node2</title>
<path fill="none" stroke="midnightblue" d="M92.5,-132.247C92.5,-123.392 92.5,-113.767 92.5,-105.896"/>
<polygon fill="midnightblue" stroke="midnightblue" points="89.0001,-132.497 92.5,-142.497 96.0001,-132.497 89.0001,-132.497"/>
</g>
</g>
</svg>
