<?xml version="1.0" encoding="UTF-8" standalone="no"?>
<!DOCTYPE svg PUBLIC "-//W3C//DTD SVG 1.1//EN"
 "http://www.w3.org/Graphics/SVG/1.1/DTD/svg11.dtd">
<!-- Generated by graphviz version 2.38.0 (20140413.2041)
 -->
<!-- Title: rapidschema::GenericWriter&lt; Writer, Ch &gt; Pages: 1 -->
<svg width="193pt" height="114pt"
 viewBox="0.00 0.00 193.00 114.00" xmlns="http://www.w3.org/2000/svg" xmlns:xlink="http://www.w3.org/1999/xlink">
<g id="graph0" class="graph" transform="scale(1 1) rotate(0) translate(4 110)">
<title>rapidschema::GenericWriter&lt; Writer, Ch &gt;</title>
<polygon fill="white" stroke="none" points="-4,4 -4,-110 189,-110 189,4 -4,4"/>
<!-- Node1 -->
<g id="node1" class="node"><title>Node1</title>
<polygon fill="#bfbfbf" stroke="black" points="3,-0.5 3,-34.5 182,-34.5 182,-0.5 3,-0.5"/>
<text text-anchor="start" x="11" y="-20.9" font-family="Helvetica,sans-Serif" font-size="12.00">rapidschema::GenericWriter</text>
<text text-anchor="middle" x="92.5" y="-7.9" font-family="Helvetica,sans-Serif" font-size="12.00">&lt; Writer, Ch &gt;</text>
</g>
<!-- Node2 -->
<g id="node2" class="node"><title>Node2</title>
<g id="a_node2"><a xlink:href="classrapidschema_1_1AbstractWriter.html" target="_top" xlink:title="for documentation of the interface please refer to the documentation of rapidjson::Writer. ">
<polygon fill="white" stroke="black" points="-1.42109e-14,-71.5 -1.42109e-14,-105.5 185,-105.5 185,-71.5 -1.42109e-14,-71.5"/>
<text text-anchor="start" x="8" y="-91.9" font-family="Helvetica,sans-Serif" font-size="12.00">rapidschema::AbstractWriter</text>
<text text-anchor="middle" x="92.5" y="-78.9" font-family="Helvetica,sans-Serif" font-size="12.00">&lt; Ch &gt;</text>
</a>
</g>
</g>
<!-- Node2&#45;&gt;Node1 -->
<g id="edge1" class="edge"><title>Node2&#45;&gt;Node1</title>
<path fill="none" stroke="midnightblue" d="M92.5,-61.2468C92.5,-52.3917 92.5,-42.7667 92.5,-34.8958"/>
<polygon fill="midnightblue" stroke="midnightblue" points="89.0001,-61.4965 92.5,-71.4966 96.0001,-61.4966 89.0001,-61.4965"/>
</g>
</g>
</svg>
