<?xml version="1.0" encoding="UTF-8" standalone="no"?>
<!DOCTYPE svg PUBLIC "-//W3C//DTD SVG 1.1//EN"
 "http://www.w3.org/Graphics/SVG/1.1/DTD/svg11.dtd">
<!-- Generated by graphviz version 2.38.0 (20140413.2041)
 -->
<!-- Title: rapidschema::PatternProperty&lt; ConfigType &gt; Pages: 1 -->
<svg width="229pt" height="114pt"
 viewBox="0.00 0.00 229.00 114.00" xmlns="http://www.w3.org/2000/svg" xmlns:xlink="http://www.w3.org/1999/xlink">
<g id="graph0" class="graph" transform="scale(1 1) rotate(0) translate(4 110)">
<title>rapidschema::PatternProperty&lt; ConfigType &gt;</title>
<polygon fill="white" stroke="none" points="-4,4 -4,-110 225,-110 225,4 -4,4"/>
<!-- Node1 -->
<g id="node1" class="node"><title>Node1</title>
<polygon fill="#bfbfbf" stroke="black" points="14.5,-0.5 14.5,-34.5 206.5,-34.5 206.5,-0.5 14.5,-0.5"/>
<text text-anchor="start" x="22.5" y="-20.9" font-family="Helvetica,sans-Serif" font-size="12.00">rapidschema::PatternProperty</text>
<text text-anchor="middle" x="110.5" y="-7.9" font-family="Helvetica,sans-Serif" font-size="12.00">&lt; ConfigType &gt;</text>
</g>
<!-- Node2 -->
<g id="node2" class="node"><title>Node2</title>
<g id="a_node2"><a xlink:href="classrapidschema_1_1PatternPropertyInterface.html" target="_top" xlink:title="rapidschema::PatternProperty\lInterface\&lt; ConfigType::CharType \&gt;">
<polygon fill="white" stroke="black" points="-1.42109e-14,-71.5 -1.42109e-14,-105.5 221,-105.5 221,-71.5 -1.42109e-14,-71.5"/>
<text text-anchor="start" x="8" y="-91.9" font-family="Helvetica,sans-Serif" font-size="12.00">rapidschema::PatternProperty</text>
<text text-anchor="middle" x="110.5" y="-78.9" font-family="Helvetica,sans-Serif" font-size="12.00">Interface&lt; ConfigType::CharType &gt;</text>
</a>
</g>
</g>
<!-- Node2&#45;&gt;Node1 -->
<g id="edge1" class="edge"><title>Node2&#45;&gt;Node1</title>
<path fill="none" stroke="midnightblue" d="M110.5,-61.2468C110.5,-52.3917 110.5,-42.7667 110.5,-34.8958"/>
<polygon fill="midnightblue" stroke="midnightblue" points="107,-61.4965 110.5,-71.4966 114,-61.4966 107,-61.4965"/>
</g>
</g>
</svg>
