<?xml version="1.0" encoding="UTF-8" standalone="no"?>
<!DOCTYPE svg PUBLIC "-//W3C//DTD SVG 1.1//EN"
 "http://www.w3.org/Graphics/SVG/1.1/DTD/svg11.dtd">
<!-- Generated by graphviz version 2.38.0 (20140413.2041)
 -->
<!-- Title: Graph Legend Pages: 1 -->
<svg width="609pt" height="169pt"
 viewBox="0.00 0.00 609.00 169.00" xmlns="http://www.w3.org/2000/svg" xmlns:xlink="http://www.w3.org/1999/xlink">
<g id="graph0" class="graph" transform="scale(1 1) rotate(0) translate(4 165)">
<title>Graph Legend</title>
<polygon fill="white" stroke="none" points="-4,4 -4,-165 605,-165 605,4 -4,4"/>
<!-- Node9 -->
<g id="node1" class="node"><title>Node9</title>
<polygon fill="#bfbfbf" stroke="black" points="350.5,-21 282.5,-21 282.5,-0 350.5,-0 350.5,-21"/>
<text text-anchor="middle" x="316.5" y="-7.4" font-family="Helvetica,sans-Serif" font-size="12.00">Inherited</text>
</g>
<!-- Node10 -->
<g id="node2" class="node"><title>Node10</title>
<g id="a_node2"><a xlink:href="$classPublicBase.html" xlink:title="PublicBase">
<polygon fill="none" stroke="black" points="79,-91 7.10543e-15,-91 7.10543e-15,-70 79,-70 79,-91"/>
<text text-anchor="middle" x="39.5" y="-77.4" font-family="Helvetica,sans-Serif" font-size="12.00">PublicBase</text>
</a>
</g>
</g>
<!-- Node10&#45;&gt;Node9 -->
<g id="edge1" class="edge"><title>Node10&#45;&gt;Node9</title>
<path fill="none" stroke="midnightblue" d="M88.2911,-67.5224C143.97,-53.854 233.599,-31.8512 282.31,-19.8931"/>
<polygon fill="midnightblue" stroke="midnightblue" points="87.1845,-64.1901 78.3073,-69.9733 88.8534,-70.9882 87.1845,-64.1901"/>
</g>
<!-- Node11 -->
<g id="node3" class="node"><title>Node11</title>
<g id="a_node3"><a xlink:href="$classTruncated.html" xlink:title="Truncated">
<polygon fill="none" stroke="red" points="76.5,-161 2.5,-161 2.5,-140 76.5,-140 76.5,-161"/>
<text text-anchor="middle" x="39.5" y="-147.4" font-family="Helvetica,sans-Serif" font-size="12.00">Truncated</text>
</a>
</g>
</g>
<!-- Node11&#45;&gt;Node10 -->
<g id="edge2" class="edge"><title>Node11&#45;&gt;Node10</title>
<path fill="none" stroke="midnightblue" d="M39.5,-129.695C39.5,-117.051 39.5,-101.216 39.5,-91.2247"/>
<polygon fill="midnightblue" stroke="midnightblue" points="36.0001,-129.757 39.5,-139.757 43.0001,-129.757 36.0001,-129.757"/>
</g>
<!-- Node13 -->
<g id="node4" class="node"><title>Node13</title>
<g id="a_node4"><a xlink:href="$classProtectedBase.html" xlink:title="ProtectedBase">
<polygon fill="none" stroke="black" points="198.5,-91 96.5,-91 96.5,-70 198.5,-70 198.5,-91"/>
<text text-anchor="middle" x="147.5" y="-77.4" font-family="Helvetica,sans-Serif" font-size="12.00">ProtectedBase</text>
</a>
</g>
</g>
<!-- Node13&#45;&gt;Node9 -->
<g id="edge3" class="edge"><title>Node13&#45;&gt;Node9</title>
<path fill="none" stroke="darkgreen" d="M181.028,-66.0094C214.043,-52.7252 263.633,-32.7718 292.766,-21.0497"/>
<polygon fill="darkgreen" stroke="darkgreen" points="179.326,-62.9216 171.355,-69.9015 181.939,-69.4156 179.326,-62.9216"/>
</g>
<!-- Node14 -->
<g id="node5" class="node"><title>Node14</title>
<g id="a_node5"><a xlink:href="$classPrivateBase.html" xlink:title="PrivateBase">
<polygon fill="none" stroke="black" points="302,-91 217,-91 217,-70 302,-70 302,-91"/>
<text text-anchor="middle" x="259.5" y="-77.4" font-family="Helvetica,sans-Serif" font-size="12.00">PrivateBase</text>
</a>
</g>
</g>
<!-- Node14&#45;&gt;Node9 -->
<g id="edge4" class="edge"><title>Node14&#45;&gt;Node9</title>
<path fill="none" stroke="#8b1a1a" d="M274.205,-61.9567C285.073,-48.9924 299.466,-31.8212 308.348,-21.2247"/>
<polygon fill="#8b1a1a" stroke="#8b1a1a" points="271.408,-59.8451 267.667,-69.7573 276.773,-64.3419 271.408,-59.8451"/>
</g>
<!-- Node15 -->
<g id="node6" class="node"><title>Node15</title>
<polygon fill="none" stroke="#bfbfbf" points="427,-91 320,-91 320,-70 427,-70 427,-91"/>
<text text-anchor="middle" x="373.5" y="-77.4" font-family="Helvetica,sans-Serif" font-size="12.00">Undocumented</text>
</g>
<!-- Node15&#45;&gt;Node9 -->
<g id="edge5" class="edge"><title>Node15&#45;&gt;Node9</title>
<path fill="none" stroke="midnightblue" d="M358.795,-61.9567C347.927,-48.9924 333.534,-31.8212 324.652,-21.2247"/>
<polygon fill="midnightblue" stroke="midnightblue" points="356.227,-64.3419 365.333,-69.7573 361.592,-59.8451 356.227,-64.3419"/>
</g>
<!-- Node16 -->
<g id="node7" class="node"><title>Node16</title>
<g id="a_node7"><a xlink:href="$classTempl.html" xlink:title="Templ&lt; int &gt;">
<polygon fill="none" stroke="black" points="535.5,-91 445.5,-91 445.5,-70 535.5,-70 535.5,-91"/>
<text text-anchor="middle" x="490.5" y="-77.4" font-family="Helvetica,sans-Serif" font-size="12.00">Templ&lt; int &gt;</text>
</a>
</g>
</g>
<!-- Node16&#45;&gt;Node9 -->
<g id="edge6" class="edge"><title>Node16&#45;&gt;Node9</title>
<path fill="none" stroke="midnightblue" d="M456.419,-66.1808C422.429,-52.8974 371.06,-32.8223 340.936,-21.0497"/>
<polygon fill="midnightblue" stroke="midnightblue" points="455.351,-69.5214 465.939,-69.9015 457.899,-63.0016 455.351,-69.5214"/>
</g>
<!-- Node17 -->
<g id="node8" class="node"><title>Node17</title>
<g id="a_node8"><a xlink:href="$classTempl.html" xlink:title="Templ&lt; T &gt;">
<polygon fill="none" stroke="black" points="532,-161 449,-161 449,-140 532,-140 532,-161"/>
<text text-anchor="middle" x="490.5" y="-147.4" font-family="Helvetica,sans-Serif" font-size="12.00">Templ&lt; T &gt;</text>
</a>
</g>
</g>
<!-- Node17&#45;&gt;Node16 -->
<g id="edge7" class="edge"><title>Node17&#45;&gt;Node16</title>
<path fill="none" stroke="orange" stroke-dasharray="5,2" d="M490.5,-129.695C490.5,-117.051 490.5,-101.216 490.5,-91.2247"/>
<polygon fill="orange" stroke="orange" points="487,-129.757 490.5,-139.757 494,-129.757 487,-129.757"/>
<text text-anchor="middle" x="511.5" y="-112.4" font-family="Helvetica,sans-Serif" font-size="12.00">&lt; int &gt;</text>
</g>
<!-- Node18 -->
<g id="node9" class="node"><title>Node18</title>
<g id="a_node9"><a xlink:href="$classUsed.html" xlink:title="Used">
<polygon fill="none" stroke="black" points="601,-91 554,-91 554,-70 601,-70 601,-91"/>
<text text-anchor="middle" x="577.5" y="-77.4" font-family="Helvetica,sans-Serif" font-size="12.00">Used</text>
</a>
</g>
</g>
<!-- Node18&#45;&gt;Node9 -->
<g id="edge8" class="edge"><title>Node18&#45;&gt;Node9</title>
<path fill="none" stroke="#9a32cd" stroke-dasharray="5,2" d="M543.683,-69.8353C469.023,-49.5978 393.298,-30.5349 350.574,-19.9135"/>
<polygon fill="#9a32cd" stroke="#9a32cd" points="543.162,-73.3206 553.73,-72.5676 544.999,-66.5659 543.162,-73.3206"/>
<text text-anchor="middle" x="515" y="-42.4" font-family="Helvetica,sans-Serif" font-size="12.00">m_usedClass</text>
</g>
</g>
</svg>
