<?xml version="1.0" encoding="UTF-8" standalone="no"?>
<!DOCTYPE svg PUBLIC "-//W3C//DTD SVG 1.1//EN"
 "http://www.w3.org/Graphics/SVG/1.1/DTD/svg11.dtd">
<!-- Generated by graphviz version 2.38.0 (20140413.2041)
 -->
<!-- Title: Graphical Class Hierarchy Pages: 1 -->
<svg width="410pt" height="43pt"
 viewBox="0.00 0.00 410.00 43.00" xmlns="http://www.w3.org/2000/svg" xmlns:xlink="http://www.w3.org/1999/xlink">
<g id="graph0" class="graph" transform="scale(1 1) rotate(0) translate(4 39)">
<title>Graphical Class Hierarchy</title>
<polygon fill="white" stroke="none" points="-4,4 -4,-39 406,-39 406,4 -4,4"/>
<!-- Node1 -->
<g id="node1" class="node"><title>Node1</title>
<g id="a_node1"><a xlink:href="classrapidschema_1_1GenericConfig.html" target="_top" xlink:title="rapidschema::GenericConfig\l\&lt; BaseConfig::CharType \&gt;">
<polygon fill="white" stroke="black" points="0,-0.5 0,-34.5 181,-34.5 181,-0.5 0,-0.5"/>
<text text-anchor="start" x="8" y="-20.9" font-family="Helvetica,sans-Serif" font-size="12.00">rapidschema::GenericConfig</text>
<text text-anchor="middle" x="90.5" y="-7.9" font-family="Helvetica,sans-Serif" font-size="12.00">&lt; BaseConfig::CharType &gt;</text>
</a>
</g>
</g>
<!-- Node2 -->
<g id="node2" class="node"><title>Node2</title>
<g id="a_node2"><a xlink:href="classrapidschema_1_1OptionalConfig.html" target="_top" xlink:title="rapidschema::OptionalConfig\l\&lt; BaseConfig \&gt;">
<polygon fill="white" stroke="black" points="217,-0.5 217,-34.5 402,-34.5 402,-0.5 217,-0.5"/>
<text text-anchor="start" x="225" y="-20.9" font-family="Helvetica,sans-Serif" font-size="12.00">rapidschema::OptionalConfig</text>
<text text-anchor="middle" x="309.5" y="-7.9" font-family="Helvetica,sans-Serif" font-size="12.00">&lt; BaseConfig &gt;</text>
</a>
</g>
</g>
<!-- Node1&#45;&gt;Node2 -->
<g id="edge1" class="edge"><title>Node1&#45;&gt;Node2</title>
<path fill="none" stroke="midnightblue" d="M191.025,-17.5C199.592,-17.5 208.234,-17.5 216.735,-17.5"/>
<polygon fill="midnightblue" stroke="midnightblue" points="191.015,-14.0001 181.015,-17.5 191.015,-21.0001 191.015,-14.0001"/>
</g>
</g>
</svg>
