<?xml version="1.0" encoding="UTF-8" standalone="no"?>
<!DOCTYPE svg PUBLIC "-//W3C//DTD SVG 1.1//EN"
 "http://www.w3.org/Graphics/SVG/1.1/DTD/svg11.dtd">
<!-- Generated by graphviz version 2.38.0 (20140413.2041)
 -->
<!-- Title: Graphical Class Hierarchy Pages: 1 -->
<svg width="639pt" height="255pt"
 viewBox="0.00 0.00 639.00 255.00" xmlns="http://www.w3.org/2000/svg" xmlns:xlink="http://www.w3.org/1999/xlink">
<g id="graph0" class="graph" transform="scale(1 1) rotate(0) translate(4 251)">
<title>Graphical Class Hierarchy</title>
<polygon fill="white" stroke="none" points="-4,4 -4,-251 635,-251 635,4 -4,4"/>
<!-- Node1 -->
<g id="node1" class="node"><title>Node1</title>
<g id="a_node1"><a xlink:href="classrapidschema_1_1GenericConfig.html" target="_top" xlink:title="rapidschema::GenericConfig\l\&lt; Ch \&gt;">
<polygon fill="white" stroke="black" points="0,-106.5 0,-140.5 181,-140.5 181,-106.5 0,-106.5"/>
<text text-anchor="start" x="8" y="-126.9" font-family="Helvetica,sans-Serif" font-size="12.00">rapidschema::GenericConfig</text>
<text text-anchor="middle" x="90.5" y="-113.9" font-family="Helvetica,sans-Serif" font-size="12.00">&lt; Ch &gt;</text>
</a>
</g>
</g>
<!-- Node2 -->
<g id="node2" class="node"><title>Node2</title>
<g id="a_node2"><a xlink:href="classrapidschema_1_1GenericValue.html" target="_top" xlink:title="rapidschema::GenericValue\l\&lt; Ch, T \&gt;">
<polygon fill="white" stroke="black" points="220.5,-212.5 220.5,-246.5 394.5,-246.5 394.5,-212.5 220.5,-212.5"/>
<text text-anchor="start" x="228.5" y="-232.9" font-family="Helvetica,sans-Serif" font-size="12.00">rapidschema::GenericValue</text>
<text text-anchor="middle" x="307.5" y="-219.9" font-family="Helvetica,sans-Serif" font-size="12.00">&lt; Ch, T &gt;</text>
</a>
</g>
</g>
<!-- Node1&#45;&gt;Node2 -->
<g id="edge1" class="edge"><title>Node1&#45;&gt;Node2</title>
<path fill="none" stroke="midnightblue" d="M122.162,-146.57C146.741,-164.172 182.679,-187.962 217,-203.5 224.223,-206.77 231.96,-209.741 239.749,-212.407"/>
<polygon fill="midnightblue" stroke="midnightblue" points="124.114,-143.662 113.963,-140.626 120.005,-149.329 124.114,-143.662"/>
</g>
<!-- Node4 -->
<g id="node4" class="node"><title>Node4</title>
<g id="a_node4"><a xlink:href="classrapidschema_1_1GenericValue.html" target="_top" xlink:title="rapidschema::GenericValue\l\&lt; Ch, T, Constraints... \&gt;">
<polygon fill="white" stroke="black" points="220.5,-159.5 220.5,-193.5 394.5,-193.5 394.5,-159.5 220.5,-159.5"/>
<text text-anchor="start" x="228.5" y="-179.9" font-family="Helvetica,sans-Serif" font-size="12.00">rapidschema::GenericValue</text>
<text text-anchor="middle" x="307.5" y="-166.9" font-family="Helvetica,sans-Serif" font-size="12.00">&lt; Ch, T, Constraints... &gt;</text>
</a>
</g>
</g>
<!-- Node1&#45;&gt;Node4 -->
<g id="edge3" class="edge"><title>Node1&#45;&gt;Node4</title>
<path fill="none" stroke="midnightblue" d="M170.641,-143.009C192.543,-148.408 216.138,-154.225 237.419,-159.471"/>
<polygon fill="midnightblue" stroke="midnightblue" points="171.258,-139.557 160.711,-140.561 169.582,-146.353 171.258,-139.557"/>
</g>
<!-- Node6 -->
<g id="node6" class="node"><title>Node6</title>
<g id="a_node6"><a xlink:href="classrapidschema_1_1Array.html" target="_top" xlink:title="rapidschema::Array\l\&lt; ConfigType, Ch \&gt;">
<polygon fill="white" stroke="black" points="242,-106.5 242,-140.5 373,-140.5 373,-106.5 242,-106.5"/>
<text text-anchor="start" x="250" y="-126.9" font-family="Helvetica,sans-Serif" font-size="12.00">rapidschema::Array</text>
<text text-anchor="middle" x="307.5" y="-113.9" font-family="Helvetica,sans-Serif" font-size="12.00">&lt; ConfigType, Ch &gt;</text>
</a>
</g>
</g>
<!-- Node1&#45;&gt;Node6 -->
<g id="edge5" class="edge"><title>Node1&#45;&gt;Node6</title>
<path fill="none" stroke="midnightblue" d="M191.218,-123.5C208.44,-123.5 225.93,-123.5 241.907,-123.5"/>
<polygon fill="midnightblue" stroke="midnightblue" points="191.123,-120 181.123,-123.5 191.122,-127 191.123,-120"/>
</g>
<!-- Node7 -->
<g id="node7" class="node"><title>Node7</title>
<g id="a_node7"><a xlink:href="classrapidschema_1_1GenericObject.html" target="_top" xlink:title="rapidschema::GenericObject\l\&lt; Ch \&gt;">
<polygon fill="white" stroke="black" points="217,-53.5 217,-87.5 398,-87.5 398,-53.5 217,-53.5"/>
<text text-anchor="start" x="225" y="-73.9" font-family="Helvetica,sans-Serif" font-size="12.00">rapidschema::GenericObject</text>
<text text-anchor="middle" x="307.5" y="-60.9" font-family="Helvetica,sans-Serif" font-size="12.00">&lt; Ch &gt;</text>
</a>
</g>
</g>
<!-- Node1&#45;&gt;Node7 -->
<g id="edge6" class="edge"><title>Node1&#45;&gt;Node7</title>
<path fill="none" stroke="midnightblue" d="M170.641,-103.991C192.543,-98.5916 216.138,-92.7754 237.419,-87.5293"/>
<polygon fill="midnightblue" stroke="midnightblue" points="169.582,-100.647 160.711,-106.439 171.258,-107.443 169.582,-100.647"/>
</g>
<!-- Node8 -->
<g id="node8" class="node"><title>Node8</title>
<g id="a_node8"><a xlink:href="classrapidschema_1_1GenericValue.html" target="_top" xlink:title="rapidschema::GenericValue\l\&lt; Ch, T, Constraints \&gt;">
<polygon fill="white" stroke="black" points="220.5,-0.5 220.5,-34.5 394.5,-34.5 394.5,-0.5 220.5,-0.5"/>
<text text-anchor="start" x="228.5" y="-20.9" font-family="Helvetica,sans-Serif" font-size="12.00">rapidschema::GenericValue</text>
<text text-anchor="middle" x="307.5" y="-7.9" font-family="Helvetica,sans-Serif" font-size="12.00">&lt; Ch, T, Constraints &gt;</text>
</a>
</g>
</g>
<!-- Node1&#45;&gt;Node8 -->
<g id="edge7" class="edge"><title>Node1&#45;&gt;Node8</title>
<path fill="none" stroke="midnightblue" d="M122.705,-100.52C147.319,-83.2358 183.047,-59.9649 217,-44.5 224.976,-40.8672 233.569,-37.5656 242.164,-34.6172"/>
<polygon fill="midnightblue" stroke="midnightblue" points="120.609,-97.7159 114.484,-106.361 124.663,-103.422 120.609,-97.7159"/>
</g>
<!-- Node3 -->
<g id="node3" class="node"><title>Node3</title>
<g id="a_node3"><a xlink:href="classrapidschema_1_1GenericConstant.html" target="_top" xlink:title="rapidschema::GenericConstant\l\&lt; Ch, T \&gt;">
<polygon fill="white" stroke="black" points="434,-212.5 434,-246.5 631,-246.5 631,-212.5 434,-212.5"/>
<text text-anchor="start" x="442" y="-232.9" font-family="Helvetica,sans-Serif" font-size="12.00">rapidschema::GenericConstant</text>
<text text-anchor="middle" x="532.5" y="-219.9" font-family="Helvetica,sans-Serif" font-size="12.00">&lt; Ch, T &gt;</text>
</a>
</g>
</g>
<!-- Node2&#45;&gt;Node3 -->
<g id="edge2" class="edge"><title>Node2&#45;&gt;Node3</title>
<path fill="none" stroke="midnightblue" d="M404.96,-229.5C414.465,-229.5 424.119,-229.5 433.638,-229.5"/>
<polygon fill="midnightblue" stroke="midnightblue" points="404.718,-226 394.718,-229.5 404.718,-233 404.718,-226"/>
</g>
<!-- Node5 -->
<g id="node5" class="node"><title>Node5</title>
<g id="a_node5"><a xlink:href="classrapidschema_1_1GenericDefaultValue.html" target="_top" xlink:title="rapidschema::GenericDefault\lValue\&lt; Ch, T, Constraints \&gt;">
<polygon fill="white" stroke="black" points="440,-159.5 440,-193.5 625,-193.5 625,-159.5 440,-159.5"/>
<text text-anchor="start" x="448" y="-179.9" font-family="Helvetica,sans-Serif" font-size="12.00">rapidschema::GenericDefault</text>
<text text-anchor="middle" x="532.5" y="-166.9" font-family="Helvetica,sans-Serif" font-size="12.00">Value&lt; Ch, T, Constraints &gt;</text>
</a>
</g>
</g>
<!-- Node4&#45;&gt;Node5 -->
<g id="edge4" class="edge"><title>Node4&#45;&gt;Node5</title>
<path fill="none" stroke="midnightblue" d="M404.881,-176.5C416.528,-176.5 428.398,-176.5 439.972,-176.5"/>
<polygon fill="midnightblue" stroke="midnightblue" points="404.718,-173 394.718,-176.5 404.718,-180 404.718,-173"/>
</g>
</g>
</svg>
