<?xml version="1.0" encoding="UTF-8" standalone="no"?>
<!DOCTYPE svg PUBLIC "-//W3C//DTD SVG 1.1//EN"
 "http://www.w3.org/Graphics/SVG/1.1/DTD/svg11.dtd">
<!-- Generated by graphviz version 2.38.0 (20140413.2041)
 -->
<!-- Title: Graphical Class Hierarchy Pages: 1 -->
<svg width="457pt" height="43pt"
 viewBox="0.00 0.00 457.00 43.00" xmlns="http://www.w3.org/2000/svg" xmlns:xlink="http://www.w3.org/1999/xlink">
<g id="graph0" class="graph" transform="scale(1 1) rotate(0) translate(4 39)">
<title>Graphical Class Hierarchy</title>
<polygon fill="white" stroke="none" points="-4,4 -4,-39 453,-39 453,4 -4,4"/>
<!-- Node1 -->
<g id="node1" class="node"><title>Node1</title>
<g id="a_node1"><a xlink:href="classrapidschema_1_1PatternPropertyInterface.html" target="_top" xlink:title="rapidschema::PatternProperty\lInterface\&lt; ConfigType::CharType \&gt;">
<polygon fill="white" stroke="black" points="0,-0.5 0,-34.5 221,-34.5 221,-0.5 0,-0.5"/>
<text text-anchor="start" x="8" y="-20.9" font-family="Helvetica,sans-Serif" font-size="12.00">rapidschema::PatternProperty</text>
<text text-anchor="middle" x="110.5" y="-7.9" font-family="Helvetica,sans-Serif" font-size="12.00">Interface&lt; ConfigType::CharType &gt;</text>
</a>
</g>
</g>
<!-- Node2 -->
<g id="node2" class="node"><title>Node2</title>
<g id="a_node2"><a xlink:href="classrapidschema_1_1PatternProperty.html" target="_top" xlink:title="rapidschema::PatternProperty\l\&lt; ConfigType \&gt;">
<polygon fill="white" stroke="black" points="257,-0.5 257,-34.5 449,-34.5 449,-0.5 257,-0.5"/>
<text text-anchor="start" x="265" y="-20.9" font-family="Helvetica,sans-Serif" font-size="12.00">rapidschema::PatternProperty</text>
<text text-anchor="middle" x="353" y="-7.9" font-family="Helvetica,sans-Serif" font-size="12.00">&lt; ConfigType &gt;</text>
</a>
</g>
</g>
<!-- Node1&#45;&gt;Node2 -->
<g id="edge1" class="edge"><title>Node1&#45;&gt;Node2</title>
<path fill="none" stroke="midnightblue" d="M231.25,-17.5C239.828,-17.5 248.409,-17.5 256.819,-17.5"/>
<polygon fill="midnightblue" stroke="midnightblue" points="231.193,-14.0001 221.193,-17.5 231.193,-21.0001 231.193,-14.0001"/>
</g>
</g>
</svg>
