<?xml version="1.0" encoding="UTF-8" standalone="no"?>
<!DOCTYPE svg PUBLIC "-//W3C//DTD SVG 1.1//EN"
 "http://www.w3.org/Graphics/SVG/1.1/DTD/svg11.dtd">
<!-- Generated by graphviz version 2.38.0 (20140413.2041)
 -->
<!-- Title: Graphical Class Hierarchy Pages: 1 -->
<svg width="408pt" height="43pt"
 viewBox="0.00 0.00 408.00 43.00" xmlns="http://www.w3.org/2000/svg" xmlns:xlink="http://www.w3.org/1999/xlink">
<g id="graph0" class="graph" transform="scale(1 1) rotate(0) translate(4 39)">
<title>Graphical Class Hierarchy</title>
<polygon fill="white" stroke="none" points="-4,4 -4,-39 404,-39 404,4 -4,4"/>
<!-- Node1 -->
<g id="node1" class="node"><title>Node1</title>
<g id="a_node1"><a xlink:href="classrapidschema_1_1AbstractWriter.html" target="_top" xlink:title="for documentation of the interface please refer to the documentation of rapidjson::Writer. ">
<polygon fill="white" stroke="black" points="0,-0.5 0,-34.5 185,-34.5 185,-0.5 0,-0.5"/>
<text text-anchor="start" x="8" y="-20.9" font-family="Helvetica,sans-Serif" font-size="12.00">rapidschema::AbstractWriter</text>
<text text-anchor="middle" x="92.5" y="-7.9" font-family="Helvetica,sans-Serif" font-size="12.00">&lt; Ch &gt;</text>
</a>
</g>
</g>
<!-- Node2 -->
<g id="node2" class="node"><title>Node2</title>
<g id="a_node2"><a xlink:href="classrapidschema_1_1GenericWriter.html" target="_top" xlink:title="rapidschema::GenericWriter\l\&lt; Writer, Ch \&gt;">
<polygon fill="white" stroke="black" points="221,-0.5 221,-34.5 400,-34.5 400,-0.5 221,-0.5"/>
<text text-anchor="start" x="229" y="-20.9" font-family="Helvetica,sans-Serif" font-size="12.00">rapidschema::GenericWriter</text>
<text text-anchor="middle" x="310.5" y="-7.9" font-family="Helvetica,sans-Serif" font-size="12.00">&lt; Writer, Ch &gt;</text>
</a>
</g>
</g>
<!-- Node1&#45;&gt;Node2 -->
<g id="edge1" class="edge"><title>Node1&#45;&gt;Node2</title>
<path fill="none" stroke="midnightblue" d="M195.147,-17.5C203.735,-17.5 212.376,-17.5 220.853,-17.5"/>
<polygon fill="midnightblue" stroke="midnightblue" points="195.103,-14.0001 185.103,-17.5 195.103,-21.0001 195.103,-14.0001"/>
</g>
</g>
</svg>
