<?xml version="1.0" encoding="UTF-8" standalone="no"?>
<!DOCTYPE svg PUBLIC "-//W3C//DTD SVG 1.1//EN"
 "http://www.w3.org/Graphics/SVG/1.1/DTD/svg11.dtd">
<!-- Generated by graphviz version 2.38.0 (20140413.2041)
 -->
<!-- Title: Graphical Class Hierarchy Pages: 1 -->
<svg width="342pt" height="96pt"
 viewBox="0.00 0.00 342.00 96.00" xmlns="http://www.w3.org/2000/svg" xmlns:xlink="http://www.w3.org/1999/xlink">
<g id="graph0" class="graph" transform="scale(1 1) rotate(0) translate(4 92)">
<title>Graphical Class Hierarchy</title>
<polygon fill="white" stroke="none" points="-4,4 -4,-92 338,-92 338,4 -4,4"/>
<!-- Node1 -->
<g id="node1" class="node"><title>Node1</title>
<polygon fill="white" stroke="#bfbfbf" points="0,-33 0,-54 83,-54 83,-33 0,-33"/>
<text text-anchor="middle" x="41.5" y="-40.4" font-family="Helvetica,sans-Serif" font-size="12.00">BaseObject</text>
</g>
<!-- Node2 -->
<g id="node2" class="node"><title>Node2</title>
<g id="a_node2"><a xlink:href="classrapidschema_1_1AdditionalProperties.html" target="_top" xlink:title="rapidschema::AdditionalProperties\l\&lt; BaseObject \&gt;">
<polygon fill="white" stroke="black" points="119,-53.5 119,-87.5 334,-87.5 334,-53.5 119,-53.5"/>
<text text-anchor="start" x="127" y="-73.9" font-family="Helvetica,sans-Serif" font-size="12.00">rapidschema::AdditionalProperties</text>
<text text-anchor="middle" x="226.5" y="-60.9" font-family="Helvetica,sans-Serif" font-size="12.00">&lt; BaseObject &gt;</text>
</a>
</g>
</g>
<!-- Node1&#45;&gt;Node2 -->
<g id="edge1" class="edge"><title>Node1&#45;&gt;Node2</title>
<path fill="none" stroke="midnightblue" d="M93.1168,-50.9681C101.265,-52.1702 109.957,-53.4527 118.845,-54.7641"/>
<polygon fill="midnightblue" stroke="midnightblue" points="93.5174,-47.4894 83.1136,-49.4922 92.4956,-54.4144 93.5174,-47.4894"/>
</g>
<!-- Node3 -->
<g id="node3" class="node"><title>Node3</title>
<g id="a_node3"><a xlink:href="classrapidschema_1_1NoAdditionalProperties.html" target="_top" xlink:title="rapidschema::NoAdditional\lProperties\&lt; BaseObject \&gt;">
<polygon fill="white" stroke="black" points="140.5,-0.5 140.5,-34.5 312.5,-34.5 312.5,-0.5 140.5,-0.5"/>
<text text-anchor="start" x="148.5" y="-20.9" font-family="Helvetica,sans-Serif" font-size="12.00">rapidschema::NoAdditional</text>
<text text-anchor="middle" x="226.5" y="-7.9" font-family="Helvetica,sans-Serif" font-size="12.00">Properties&lt; BaseObject &gt;</text>
</a>
</g>
</g>
<!-- Node1&#45;&gt;Node3 -->
<g id="edge2" class="edge"><title>Node1&#45;&gt;Node3</title>
<path fill="none" stroke="midnightblue" d="M93.4097,-36.2669C108.008,-34.1928 124.336,-31.873 140.4,-29.5908"/>
<polygon fill="midnightblue" stroke="midnightblue" points="92.5219,-32.8578 83.1136,-37.7298 93.5066,-39.7882 92.5219,-32.8578"/>
</g>
</g>
</svg>
